# xmcd
#
# Track frame offsets:
#	150
#	37000
#	50428
#	66801
#	78568
#	95983
#	113193
#	132513
#	147002
#	161509
#	174997
#	198983
#	212271
#	226178
#	237227
#	249159
#
# Disc length: 3469 seconds
#
# Revision: 0
# Processed by: cddbd v1.5.1PL2 Copyright (c) Steve Scherf et al.
# Submitted via: dBpowerAMP V4.0
#
DISCID=d70d8b10
DTITLE=Various Artist - Soul Divas CD2
DYEAR=2005
DGENRE=Soul
TTITLE0=Donna Summer - Last dance
TTITLE1=Diana Ross - Reach out and touche (somebody's hand)
TTITLE2=Thelma Houston - Don't leave me this way
TTITLE3=Martha Reeves and The Vandellas - Dancing in the street
TTITLE4=Charlene - I've never been the same
TTITLE5=Love Unlimited - I'm so glad that I'm a woman
TTITLE6=Sheena Easton - What comes naturally
TTITLE7=Gladys Knights and The Pips - If I were your woman
TTITLE8=Diana Ross and The Supremes - Love child
TTITLE9=Gloria Gaynor - Never can say goodbye
TTITLE10=Stephanie Mills - Never knew love like this before
TTITLE11=Yvonne Elliman - If I can't have you
TTITLE12=Etta James - I just want to make love to you
TTITLE13=Mary Wells - The one who really loves you
TTITLE14=Rita Wright - I can't give back the love I feel for you
TTITLE15=Dinah Washington - What a difference a day made
EXTD=Universal 983 331-5
EXTT0=
EXTT1=
EXTT2=
EXTT3=
EXTT4=
EXTT5=
EXTT6=
EXTT7=
EXTT8=
EXTT9=
EXTT10=
EXTT11=
EXTT12=
EXTT13=
EXTT14=
EXTT15=
PLAYORDER=
